<svg width="21" height="22" viewBox="0 0 21 22" fill="none" xmlns="http://www.w3.org/2000/svg">
<path fill-rule="evenodd" clip-rule="evenodd" d="M5.70001 0.599976C5.91218 0.599976 6.11566 0.684261 6.26569 0.83429C6.41572 0.984319 6.50001 1.1878 6.50001 1.39998V2.19998H14.5V1.39998C14.5 1.1878 14.5843 0.984319 14.7343 0.83429C14.8844 0.684261 15.0878 0.599976 15.3 0.599976C15.5122 0.599976 15.7157 0.684261 15.8657 0.83429C16.0157 0.984319 16.1 1.1878 16.1 1.39998V2.19998H18.5C19.1365 2.19998 19.747 2.45283 20.1971 2.90292C20.6472 3.35301 20.9 3.96346 20.9 4.59998V19C20.9 19.6365 20.6472 20.2469 20.1971 20.697C19.747 21.1471 19.1365 21.4 18.5 21.4H2.50001C1.86349 21.4 1.25304 21.1471 0.80295 20.697C0.352863 20.2469 0.100006 19.6365 0.100006 19V4.59998C0.100006 3.96346 0.352863 3.35301 0.80295 2.90292C1.25304 2.45283 1.86349 2.19998 2.50001 2.19998H4.90001V1.39998C4.90001 1.1878 4.98429 0.984319 5.13432 0.83429C5.28435 0.684261 5.48783 0.599976 5.70001 0.599976ZM14.5 3.79998V4.59998C14.5 4.81215 14.5843 5.01563 14.7343 5.16566C14.8844 5.31569 15.0878 5.39998 15.3 5.39998C15.5122 5.39998 15.7157 5.31569 15.8657 5.16566C16.0157 5.01563 16.1 4.81215 16.1 4.59998V3.79998H18.5C18.7122 3.79998 18.9157 3.88426 19.0657 4.03429C19.2157 4.18432 19.3 4.3878 19.3 4.59998V6.99998H1.70001V4.59998C1.70001 4.3878 1.78429 4.18432 1.93432 4.03429C2.08435 3.88426 2.28783 3.79998 2.50001 3.79998H4.90001V4.59998C4.90001 4.81215 4.98429 5.01563 5.13432 5.16566C5.28435 5.31569 5.48783 5.39998 5.70001 5.39998C5.91218 5.39998 6.11566 5.31569 6.26569 5.16566C6.41572 5.01563 6.50001 4.81215 6.50001 4.59998V3.79998H14.5ZM1.70001 8.59998V19C1.70001 19.2122 1.78429 19.4156 1.93432 19.5657C2.08435 19.7157 2.28783 19.8 2.50001 19.8H18.5C18.7122 19.8 18.9157 19.7157 19.0657 19.5657C19.2157 19.4156 19.3 19.2122 19.3 19V8.59998H1.70001ZM9.70001 11C9.70001 10.7878 9.78429 10.5843 9.93432 10.4343C10.0844 10.2843 10.2878 10.2 10.5 10.2C10.7122 10.2 10.9157 10.2843 11.0657 10.4343C11.2157 10.5843 11.3 10.7878 11.3 11C11.3 11.2121 11.2157 11.4156 11.0657 11.5657C10.9157 11.7157 10.7122 11.8 10.5 11.8C10.2878 11.8 10.0844 11.7157 9.93432 11.5657C9.78429 11.4156 9.70001 11.2121 9.70001 11ZM13.7 10.2C13.4878 10.2 13.2844 10.2843 13.1343 10.4343C12.9843 10.5843 12.9 10.7878 12.9 11C12.9 11.2121 12.9843 11.4156 13.1343 11.5657C13.2844 11.7157 13.4878 11.8 13.7 11.8C13.9122 11.8 14.1157 11.7157 14.2657 11.5657C14.4157 11.4156 14.5 11.2121 14.5 11C14.5 10.7878 14.4157 10.5843 14.2657 10.4343C14.1157 10.2843 13.9122 10.2 13.7 10.2ZM16.1 11C16.1 10.7878 16.1843 10.5843 16.3343 10.4343C16.4844 10.2843 16.6878 10.2 16.9 10.2C17.1122 10.2 17.3157 10.2843 17.4657 10.4343C17.6157 10.5843 17.7 10.7878 17.7 11C17.7 11.2121 17.6157 11.4156 17.4657 11.5657C17.3157 11.7157 17.1122 11.8 16.9 11.8C16.6878 11.8 16.4844 11.7157 16.3343 11.5657C16.1843 11.4156 16.1 11.2121 16.1 11ZM16.9 13.4C16.6878 13.4 16.4844 13.4843 16.3343 13.6343C16.1843 13.7843 16.1 13.9878 16.1 14.2C16.1 14.4122 16.1843 14.6156 16.3343 14.7657C16.4844 14.9157 16.6878 15 16.9 15C17.1122 15 17.3157 14.9157 17.4657 14.7657C17.6157 14.6156 17.7 14.4122 17.7 14.2C17.7 13.9878 17.6157 13.7843 17.4657 13.6343C17.3157 13.4843 17.1122 13.4 16.9 13.4ZM12.9 14.2C12.9 13.9878 12.9843 13.7843 13.1343 13.6343C13.2844 13.4843 13.4878 13.4 13.7 13.4C13.9122 13.4 14.1157 13.4843 14.2657 13.6343C14.4157 13.7843 14.5 13.9878 14.5 14.2C14.5 14.4122 14.4157 14.6156 14.2657 14.7657C14.1157 14.9157 13.9122 15 13.7 15C13.4878 15 13.2844 14.9157 13.1343 14.7657C12.9843 14.6156 12.9 14.4122 12.9 14.2ZM10.5 13.4C10.2878 13.4 10.0844 13.4843 9.93432 13.6343C9.78429 13.7843 9.70001 13.9878 9.70001 14.2C9.70001 14.4122 9.78429 14.6156 9.93432 14.7657C10.0844 14.9157 10.2878 15 10.5 15C10.7122 15 10.9157 14.9157 11.0657 14.7657C11.2157 14.6156 11.3 14.4122 11.3 14.2C11.3 13.9878 11.2157 13.7843 11.0657 13.6343C10.9157 13.4843 10.7122 13.4 10.5 13.4ZM6.50001 14.2C6.50001 13.9878 6.58429 13.7843 6.73432 13.6343C6.88435 13.4843 7.08783 13.4 7.30001 13.4C7.51218 13.4 7.71566 13.4843 7.86569 13.6343C8.01572 13.7843 8.10001 13.9878 8.10001 14.2C8.10001 14.4122 8.01572 14.6156 7.86569 14.7657C7.71566 14.9157 7.51218 15 7.30001 15C7.08783 15 6.88435 14.9157 6.73432 14.7657C6.58429 14.6156 6.50001 14.4122 6.50001 14.2ZM4.10001 13.4C3.88783 13.4 3.68435 13.4843 3.53432 13.6343C3.38429 13.7843 3.30001 13.9878 3.30001 14.2C3.30001 14.4122 3.38429 14.6156 3.53432 14.7657C3.68435 14.9157 3.88783 15 4.10001 15C4.31218 15 4.51566 14.9157 4.66569 14.7657C4.81572 14.6156 4.90001 14.4122 4.90001 14.2C4.90001 13.9878 4.81572 13.7843 4.66569 13.6343C4.51566 13.4843 4.31218 13.4 4.10001 13.4ZM3.30001 17.4C3.30001 17.1878 3.38429 16.9843 3.53432 16.8343C3.68435 16.6843 3.88783 16.6 4.10001 16.6C4.31218 16.6 4.51566 16.6843 4.66569 16.8343C4.81572 16.9843 4.90001 17.1878 4.90001 17.4C4.90001 17.6122 4.81572 17.8156 4.66569 17.9657C4.51566 18.1157 4.31218 18.2 4.10001 18.2C3.88783 18.2 3.68435 18.1157 3.53432 17.9657C3.38429 17.8156 3.30001 17.6122 3.30001 17.4ZM7.30001 16.6C7.08783 16.6 6.88435 16.6843 6.73432 16.8343C6.58429 16.9843 6.50001 17.1878 6.50001 17.4C6.50001 17.6122 6.58429 17.8156 6.73432 17.9657C6.88435 18.1157 7.08783 18.2 7.30001 18.2C7.51218 18.2 7.71566 18.1157 7.86569 17.9657C8.01572 17.8156 8.10001 17.6122 8.10001 17.4C8.10001 17.1878 8.01572 16.9843 7.86569 16.8343C7.71566 16.6843 7.51218 16.6 7.30001 16.6ZM9.70001 17.4C9.70001 17.1878 9.78429 16.9843 9.93432 16.8343C10.0844 16.6843 10.2878 16.6 10.5 16.6C10.7122 16.6 10.9157 16.6843 11.0657 16.8343C11.2157 16.9843 11.3 17.1878 11.3 17.4C11.3 17.6122 11.2157 17.8156 11.0657 17.9657C10.9157 18.1157 10.7122 18.2 10.5 18.2C10.2878 18.2 10.0844 18.1157 9.93432 17.9657C9.78429 17.8156 9.70001 17.6122 9.70001 17.4ZM13.7 16.6C13.4878 16.6 13.2844 16.6843 13.1343 16.8343C12.9843 16.9843 12.9 17.1878 12.9 17.4C12.9 17.6122 12.9843 17.8156 13.1343 17.9657C13.2844 18.1157 13.4878 18.2 13.7 18.2C13.9122 18.2 14.1157 18.1157 14.2657 17.9657C14.4157 17.8156 14.5 17.6122 14.5 17.4C14.5 17.1878 14.4157 16.9843 14.2657 16.8343C14.1157 16.6843 13.9122 16.6 13.7 16.6Z" fill="white"/>
</svg>
